<?xml version="1.0" encoding="UTF-8" standalone="no"?>
<!DOCTYPE svg PUBLIC "-//W3C//DTD SVG 1.1//EN" "http://www.w3.org/Graphics/SVG/1.1/DTD/svg11.dtd">
<svg width="100%" height="100%" viewBox="0 0 1024 1024" version="1.1" xmlns="http://www.w3.org/2000/svg" xmlns:xlink="http://www.w3.org/1999/xlink" xml:space="preserve" xmlns:serif="http://www.serif.com/" style="fill-rule:evenodd;clip-rule:evenodd;stroke-linejoin:round;stroke-miterlimit:2;">
    <g transform="matrix(1.60938,0,0,1.60938,100,100)">
        <g transform="matrix(1.40659,0,0,1.2962,-2.81319,-28.5165)">
            <path d="M366,120.75C366,66.248 325.224,22 275,22L93,22C42.776,22 2,66.248 2,120.75L2,318.25C2,372.752 42.776,417 93,417L275,417C325.224,417 366,372.752 366,318.25L366,120.75Z" style="fill:url(#_Linear1);"/>
        </g>
        <g transform="matrix(16.0983,0,0,16.0983,64.9017,64.4302)">
            <path d="M17,13C16.9,13 16.8,13.1 16.7,13.2L16.5,14.5C16.2,14.6 15.9,14.8 15.7,15L14.5,14.5C14.4,14.5 14.3,14.5 14.2,14.6L13.2,16.3C13.1,16.4 13.2,16.5 13.3,16.6L14.4,17.4L14.4,18.4L13.3,19.2C13.2,19.3 13.2,19.4 13.2,19.5L14.2,21.2C14.3,21.3 14.4,21.3 14.5,21.3L15.7,20.8C16,21 16.2,21.2 16.5,21.3L16.7,22.6C16.7,22.7 16.8,22.8 17,22.8L19,22.8C19.1,22.8 19.2,22.7 19.2,22.6L19.4,21.3C19.7,21.2 20,21 20.2,20.8L21.4,21.3C21.5,21.3 21.7,21.3 21.7,21.2L22.7,19.5C22.8,19.4 22.7,19.3 22.6,19.2L21.5,18.4L21.5,17.4L22.6,16.6C22.7,16.5 22.7,16.4 22.7,16.3L21.7,14.6C21.6,14.5 21.5,14.5 21.4,14.5L20.3,15C20,14.8 19.8,14.6 19.4,14.5L19.2,13.2C19.2,13.1 19.1,13 19,13L17,13M18,16.5C18.8,16.5 19.5,17.2 19.5,18C19.5,18.8 18.8,19.5 18,19.5C17.2,19.5 16.5,18.8 16.5,18C16.5,17.2 17.2,16.5 18,16.5M11.7,21L1,21L21,1L21,11.7C20.1,11.3 19.1,11 18,11C14.1,11 11,14.1 11,18C11,19.1 11.2,20.1 11.7,21Z" style="fill:white;fill-rule:nonzero;"/>
        </g>
    </g>
    <defs>
        <linearGradient id="_Linear1" x1="0" y1="0" x2="1" y2="0" gradientUnits="userSpaceOnUse" gradientTransform="matrix(363.289,394.229,-363.289,394.229,2.71094,22)"><stop offset="0" style="stop-color:rgb(166,200,255);stop-opacity:1"/><stop offset="1" style="stop-color:rgb(85,63,92);stop-opacity:1"/></linearGradient>
    </defs>
</svg>
